/* XPM */
static const char *zoomLockedIcn[]={
"16 16 7 1",
". c None",
"# c #000000",
"e c #008080",
"d c #303030",
"c c #585858",
"a c #a8dcff",
"b c #ffffff",
"...####.........",
".##aaaa##.......",
".#aaabba#.......",
"#aaaabbaa#......",
"#aaaaaaaa#......",
"#aaaaaaaa#......",
"#aaaaaaaa#......",
".#aaaaaa#.......",
".##aaaa#c...dd..",
"...####.#c.d..d.",
".........#.d..d.",
"..........eeeeee",
"..........eeeeee",
"..........eeedee",
"..........eeedee",
"..........eeeeee"};
/* drawn by: Carl Beckmann, 10/5/2006 */
/*
 * Copyright (c) 2014, Intel Corporation
 *
 * All rights reserved.
 * Redistribution and use in source and binary forms, with or without 
 * modification, are permitted provided that the following conditions are 
 * met:
 * 
 * - Redistributions of source code must retain the above copyright notice,
 *   this list of conditions and the following disclaimer.
 * - Redistributions in binary form must reproduce the above copyright 
 *   notice, this list of conditions and the following disclaimer in the 
 *   documentation and/or other materials provided with the distribution.
 * - Neither the name of the Intel Corporation nor the names of its 
 *   contributors may be used to endorse or promote products derived from 
 *   this software without specific prior written permission.
 *  
 * THIS SOFTWARE IS PROVIDED BY THE COPYRIGHT HOLDERS AND CONTRIBUTORS 
 * "AS IS" AND ANY EXPRESS OR IMPLIED WARRANTIES, INCLUDING, BUT NOT 
 * LIMITED TO, THE IMPLIED WARRANTIES OF MERCHANTABILITY AND FITNESS FOR A 
 * PARTICULAR PURPOSE ARE DISCLAIMED. IN NO EVENT SHALL THE COPYRIGHT 
 * OWNER OR CONTRIBUTORS BE LIABLE FOR ANY DIRECT, INDIRECT, INCIDENTAL, 
 * SPECIAL, EXEMPLARY, OR CONSEQUENTIAL DAMAGES (INCLUDING, BUT NOT LIMITED
 * TO, PROCUREMENT OF SUBSTITUTE GOODS OR SERVICES; LOSS OF USE, DATA, 
 * OR PROFITS; OR BUSINESS INTERRUPTION) HOWEVER CAUSED AND ON ANY THEORY 
 * OF LIABILITY, WHETHER IN CONTRACT, STRICT LIABILITY, OR TORT (INCLUDING 
 * NEGLIGENCE OR OTHERWISE) ARISING IN ANY WAY OUT OF THE USE OF THIS 
 * SOFTWARE, EVEN IF ADVISED OF THE POSSIBILITY OF SUCH DAMAGE.
 */
